<svg fill="#000000" id="svg5" viewBox="0 0 8.4666662 8.4666662" xmlns="http://www.w3.org/2000/svg" xmlns:svg="http://www.w3.org/2000/svg"><linearGradient id="linearGradient2739"><stop id="stop2737" offset="0" stop-color="#0ecc24"/></linearGradient><linearGradient id="linearGradient2667"><stop id="stop2665" offset="0"/></linearGradient><g id="layer1"><path id="path27201" d="m4.2321757.5291667c-2.0480604 0-3.70300892 1.6549497-3.70300892 3.7030091 0 2.0480603 1.65494852 3.7053237 3.70300892 3.7053237 2.0480593 0 3.7053237-1.6572634 3.7053237-3.7053237 0-2.0480594-1.6572644-3.7030091-3.7053237-3.7030091zm1.9443836 1.8170727.098376.6498639c.0172962.1204571-.0655143.2324149-.1857576.2511495-.1198948.0177325-.2318849-.0638797-.2517281-.1834432l-.0190966-.1221027-1.0589947 1.4409271c-.073334.099474-.213733.1200164-.3124903.045716l-.5208168-.3935061-1.3431294 1.638259c-.0778758.0946575-.2176971.108386-.3124901.0306703-.0957674-.0772331-.1105441-.2175704-.0329852-.3130689l1.4808565-1.8020269c.0754874-.0926431.2107269-.1090071.3061247-.037036l.5121366.384826.9230036-1.2545904-.1186306.0190966c-.1214806.018672-.2350432-.064818-.2534642-.1863367-.01869-.1212868.0644733-.2347632.1857579-.2534643l.6498639-.1006911c.1357112-.017927.2319696.085914.2534644.1857579zm-4.028809 3.5172509h4.1711656c.1222784-.0003224.2218389.098205.2227941.2204792.0006427.1234057-.099389.2236952-.2227941.2233726h-4.1711656c-.1234106.0003226-.2234367-.099968-.2227939-.2233726.0009552-.1222703.1005171-.2208016.2227939-.2204792z" stroke-linecap="round" stroke-linejoin="round"/></g></svg>
