<svg id="Layer_1" enable-background="new 0 0 512 512" height="512" viewBox="0 0 512 512" width="512" xmlns="http://www.w3.org/2000/svg"><g><path d="m507.606 174.806c-33.962-33.962-73.567-60.26-117.716-78.163-42.636-17.289-87.683-26.056-133.89-26.056-46.208 0-91.255 8.767-133.891 26.056-44.149 17.903-83.755 44.201-117.717 78.163-5.858 5.857-5.858 15.354-.001 21.213l43.816 43.818c2.813 2.813 6.629 4.394 10.606 4.394h.001c3.978 0 7.793-1.58 10.606-4.394 49.837-49.835 116.099-77.281 186.578-77.281s136.74 27.446 186.576 77.281c2.813 2.813 6.628 4.394 10.606 4.394s7.794-1.58 10.606-4.394l43.816-43.818c5.863-5.858 5.863-15.355.004-21.213z"/><path d="m256 194.523c-61.939 0-120.172 24.12-163.97 67.918-5.858 5.857-5.858 15.354-.001 21.213l43.816 43.818c5.858 5.858 15.355 5.857 21.213.001 26.429-26.426 61.566-40.979 98.94-40.979 37.375 0 72.513 14.554 98.941 40.98 2.813 2.813 6.629 4.394 10.607 4.394s7.793-1.581 10.606-4.395l43.814-43.82c5.856-5.857 5.856-15.354-.001-21.212-43.794-43.798-102.026-67.918-163.965-67.918z"/><path d="m256.002 318.462c-28.835 0-55.944 11.228-76.335 31.616-2.813 2.813-4.394 6.629-4.394 10.607s1.58 7.794 4.394 10.606l65.727 65.727c2.929 2.93 6.767 4.394 10.606 4.394 3.838 0 7.678-1.465 10.606-4.394l65.729-65.727c2.813-2.813 4.394-6.628 4.394-10.606s-1.581-7.794-4.394-10.606c-20.391-20.388-47.499-31.617-76.333-31.617z"/></g></svg>