<svg fill="#000000" id="Layer_1" viewBox="0 0 64 64" xmlns="http://www.w3.org/2000/svg" data-name="Layer 1"><path d="m17 49v3a1 1 0 0 0 1 1h1.11l.89 8h20l.89-8h1.11a1 1 0 0 0 1-1v-3a3 3 0 0 0 3-3v-9h3a1 1 0 0 0 1-1v-8a1 1 0 0 0 -1-1h-3v-9a3 3 0 0 0 -3-3v-3a1 1 0 0 0 -1-1h-1.11l-.89-8h-20l-.89 8h-1.11a1 1 0 0 0 -1 1v3a3 3 0 0 0 -3 3v28a3 3 0 0 0 3 3zm29-20h2v6h-2zm-5 22h-22v-2h22zm-11-5a11 11 0 0 1 -11-11h2a9 9 0 1 0 9-9v-2a11 11 0 0 1 0 22zm-7-11a7 7 0 1 1 7 7 7 7 0 0 1 -7-7zm12-13v-2h2v2zm3 0v-3h2v3zm5-4v4h-2v-4zm-24-5h22v2h-22zm-2 7h1.38l.73-1.45a1 1 0 0 1 1.82.08l1 2.46.14-.41a1 1 0 0 1 .93-.68h2v2h-1.28l-.72 2.32a1 1 0 0 1 -1 .68 1 1 0 0 1 -.93-.63l-1.17-2.93a1 1 0 0 1 -.9.56h-2z"/><path d="m30 40a5 5 0 1 0 -5-5 5 5 0 0 0 5 5zm0-8a3 3 0 1 1 -3 3 3 3 0 0 1 3-3z"/></svg>
