<svg id="Capa_1" enable-background="new 0 0 512 512" viewBox="0 0 512 512" xmlns="http://www.w3.org/2000/svg"><g><path d="m102.862 464.608h307.951v39.421h-307.951z"/><path d="m0 228.74h39.256v173.761h-39.256z"/><path d="m442.721 194.987h-373.546v221.808c.011.236.036.468.036.706s-.025.47-.036.706v16.402h373.546zm-100.006 146.346c0 8.284-6.698 15-14.959 15h-30.393v30.489c0 8.284-6.698 15-14.959 15h-52.91c-8.262 0-14.959-6.716-14.959-15v-30.489h-30.393c-8.262 0-14.959-6.716-14.959-15v-53.071c0-8.284 6.698-15 14.959-15h30.393v-30.49c0-8.284 6.698-15 14.959-15h52.91c8.262 0 14.959 6.716 14.959 15v30.49h30.393c8.262 0 14.959 6.716 14.959 15z"/><path d="m39.256 179.987c0-8.284 6.698-15 14.959-15h17.051v-39.421h-36.6c-3.789 0-7.422 1.509-10.1 4.196l-20.384 20.447c-2.678 2.685-4.182 6.327-4.182 10.124v38.406h39.256z"/><path d="m269.438 286.262v-28.49h-26.981v28.49c0 8.284-6.698 15-14.959 15h-28.398v27.071h28.398c8.262 0 14.959 6.716 14.959 15v28.489h26.981v-28.489c0-8.284 6.698-15 14.959-15h28.398v-27.071h-28.398c-8.261 0-14.959-6.716-14.959-15z"/><path d="m101.186 125.566h307.951v39.421h-307.951z"/><path d="m507.819 149.056-19.236-19.294c-2.678-2.687-6.312-4.196-10.1-4.196h-39.425v39.421h18.624c8.262 0 14.959 6.716 14.959 15v17.108h39.359v-37.914c0-3.797-1.504-7.439-4.181-10.125z"/><path d="m163.025 95.566v-29.736l33.475-27.859h121.949l30.423 30.515v27.08h29.919v-33.292c0-3.978-1.575-7.792-4.38-10.604l-39.184-39.303c-2.806-2.814-6.611-4.396-10.58-4.396h-133.547c-3.489 0-6.869 1.223-9.554 3.458l-43.035 35.814c-3.424 2.85-5.406 7.08-5.406 11.542v36.78h29.92z"/><path d="m512 469.816v-38.961h-39.36v18.753c0 8.284-6.698 15-14.959 15h-16.948v39.421h37.154c3.789 0 7.422-1.509 10.1-4.196l19.832-19.892c2.677-2.686 4.181-6.328 4.181-10.125z"/><path d="m4.181 478.787 20.982 21.045c2.678 2.687 6.312 4.196 10.1 4.196h37.68v-39.421h-18.727c-8.262 0-14.959-6.716-14.959-15v-17.107h-39.257v36.162c0 3.798 1.504 7.44 4.181 10.125z"/><path d="m472.64 227.095h39.36v173.76h-39.36z"/></g><g/><g/><g/><g/><g/><g/><g/><g/><g/><g/><g/><g/><g/><g/><g/></svg>