<svg fill="#000000" viewBox="0 0 48 48" xmlns="http://www.w3.org/2000/svg"><g id="_1" data-name="1"><path d="m44 12v22a4 4 0 0 1 -4 4c-3.34 0-9.88 0-12.74 2h16.74a2 2 0 0 0 2-2v-24a2 2 0 0 0 -2-2z"/><path d="m4 34v-22a2 2 0 0 0 -2 2v24a2 2 0 0 0 2 2h16.74c-2.84-2-9.4-2-12.74-2a4 4 0 0 1 -4-4z"/><path d="m8 8a2 2 0 0 0 -2 2v24a2 2 0 0 0 2 2c5.91 0 12.39.3 15 3.37v-28.65c-3.57-2.45-9.52-2.72-15-2.72z"/><path d="m42 34v-24a2 2 0 0 0 -2-2c-5.48 0-11.43.27-15 2.72v28.65c2.61-3.07 9.09-3.37 15-3.37a2 2 0 0 0 2-2z"/></g></svg>
