<svg fill="#000000" id="solid" viewBox="0 0 16 16" xmlns="http://www.w3.org/2000/svg"><g><path d="m12.5 7c1.93 0 3.5-1.57 3.5-3.5s-1.57-3.5-3.5-3.5-3.5 1.57-3.5 3.5 1.57 3.5 3.5 3.5zm-1-4h.5v-.5c0-.276.224-.5.5-.5s.5.224.5.5v.5h.5c.276 0 .5.224.5.5s-.224.5-.5.5h-.5v.5c0 .276-.224.5-.5.5s-.5-.224-.5-.5v-.5h-.5c-.276 0-.5-.224-.5-.5s.224-.5.5-.5z"/><circle cx="6.5" cy="14.5" r="1.5"/><circle cx="11.5" cy="14.5" r="1.5"/><path d="m8.051 4h-4.709l-.184-.829c-.154-.69-.754-1.171-1.461-1.171h-1.197c-.276 0-.5.224-.5.5s.224.5.5.5h1.197c.234 0 .434.16.484.389l1.656 7.438c.155.69.757 1.173 1.465 1.173h7.444c.666 0 1.259-.447 1.442-1.088l1.122-3.926c-.773.624-1.742 1.014-2.81 1.014-2.31 0-4.197-1.756-4.449-4z"/></g></svg>
