<svg viewBox="0 0 512 512" xmlns="http://www.w3.org/2000/svg"><g id="Layer_2" data-name="Layer 2"><g id="Layer_17_copy_5" data-name="Layer 17 copy 5"><g id="_99" data-name="99"><path d="m397.92 327.72h-283.84a3.09 3.09 0 0 0 -3.08 3.09 22.25 22.25 0 0 0 22.22 22.19h245.56a22.25 22.25 0 0 0 22.22-22.19 3.09 3.09 0 0 0 -3.08-3.09z"/><path d="m143.55 176.55h224.9v126.59h-224.9z"/><path d="m386 164.23a5.27 5.27 0 0 0 -5.26-5.26h-249.51a5.27 5.27 0 0 0 -5.26 5.26v153.49h260.03zm-7.58 143.91a5 5 0 0 1 -5 5h-234.87a5 5 0 0 1 -5-5v-136.59a5 5 0 0 1 5-5h234.9a5 5 0 0 1 5 5z"/><path d="m256 0c-141.38 0-256 114.62-256 256s114.62 256 256 256 256-114.62 256-256-114.62-256-256-256zm122.78 363h-245.56a32.26 32.26 0 0 1 -32.22-32.19 13.1 13.1 0 0 1 13.08-13.09h1.92v-153.49a15.28 15.28 0 0 1 15.23-15.23h249.54a15.28 15.28 0 0 1 15.23 15.23v153.49h1.89a13.1 13.1 0 0 1 13.11 13.09 32.26 32.26 0 0 1 -32.22 32.19z"/></g></g></g></svg>